<svg width="329" height="129" viewBox="0 0 329 129" fill="none" xmlns="http://www.w3.org/2000/svg">
<path d="M24.49 60.9769C22.6 60.9769 21.2 60.9769 20.29 60.8669L15.77 76.1069C13.4523 76.589 11.0865 76.8005 8.72 76.7369C5.94427 76.8257 3.17392 76.4368 0.529999 75.5869L0 74.7469L23.13 4.20687C26.2963 3.75707 29.492 3.54647 32.69 3.57686C35.9993 3.51159 39.3074 3.75938 42.57 4.31688L65.29 74.9569C62.733 76.3138 59.8744 77.0018 56.98 76.9569C53.34 76.9569 50.7833 76.3269 49.31 75.0669C47.8367 73.8069 46.5767 71.3902 45.53 67.8169L43.53 60.8769C42.62 60.9469 41.25 60.9869 39.43 60.9869L24.49 60.9769ZM24.18 47.7269L28.38 47.6269H36.06C36.41 47.6269 37.06 47.6269 37.89 47.6269C38.72 47.6269 39.42 47.6769 39.84 47.6769L38.05 41.1568C36.37 35.2768 34.4434 28.0602 32.27 19.5069H31.64C31.08 22.5136 29.3967 29.2069 26.59 39.5869L24.18 47.7269Z" fill="#003049"/>
<path d="M89.03 35.9568V76.3269C87.7423 76.5502 86.4439 76.7071 85.14 76.7968C83.74 76.8968 82.3 76.9569 80.83 76.9569C79.36 76.9569 77.9 76.8968 76.47 76.7968C75.1461 76.7087 73.8277 76.5519 72.52 76.3269V41.4968C72.52 37.4368 70.88 35.4068 67.58 35.4068H66.01C65.5305 33.5872 65.3183 31.7075 65.38 29.8268C65.3429 27.8482 65.5545 25.8727 66.01 23.9469C67.83 23.8069 69.51 23.6768 71.01 23.5768C72.51 23.4768 73.96 23.4169 75.22 23.4169H77.53C79.0925 23.3333 80.6545 23.5915 82.107 24.1735C83.5595 24.7556 84.8676 25.6474 85.94 26.7869C88 29.0469 89.03 32.1035 89.03 35.9568ZM70.63 2.73684C73.0771 1.52297 75.7907 0.9452 78.52 1.05684C81.1818 0.909528 83.8335 1.49033 86.19 2.73684C87.021 4.66314 87.4496 6.73894 87.4496 8.83684C87.4496 10.9347 87.021 13.0105 86.19 14.9368C83.6848 16.0849 80.9433 16.6229 78.19 16.5069C74.9 16.5069 72.37 15.9868 70.62 14.9368C69.789 13.0105 69.3604 10.9347 69.3604 8.83684C69.3604 6.73894 69.789 4.66314 70.62 2.73684H70.63Z" fill="#003049"/>
<path d="M127.03 44.4968C127.03 39.8301 125.453 37.4968 122.3 37.4968C121.091 37.5188 119.91 37.8641 118.88 38.4968C117.622 39.2309 116.442 40.0921 115.36 41.0668V76.1768C114.16 76.3868 112.87 76.5468 111.47 76.6568C110.07 76.7668 108.63 76.8068 107.16 76.8068C105.69 76.8068 104.25 76.8068 102.85 76.6568C101.45 76.5068 100.15 76.3868 98.96 76.1768V23.6568L99.7 22.9168H105.79C110.283 22.9168 113.227 25.1268 114.62 29.5468C119.6 24.9868 124.437 22.7068 129.13 22.7068C134.803 22.7068 138.903 25.1268 141.43 29.9668C146.89 25.1268 152.073 22.7068 156.98 22.7068C161.887 22.7068 165.553 24.2301 167.98 27.2768C170.4 30.3301 171.61 34.3801 171.61 39.4268V62.9668C171.61 67.5268 172.487 70.9968 174.24 73.3768C171.619 75.7391 168.198 77.0155 164.67 76.9468C161.02 76.9468 158.54 76.1068 157.2 74.4268C155.86 72.7468 155.2 70.1868 155.2 66.7568V44.3668C155.2 39.7335 153.553 37.4201 150.26 37.4268C148.22 37.4268 145.977 38.6534 143.53 41.1068V76.1068C142.34 76.3168 141.04 76.4768 139.64 76.5868C138.24 76.6968 136.8 76.7368 135.33 76.7368C133.86 76.7368 132.4 76.7368 130.97 76.5868C129.54 76.4368 128.22 76.3168 127.03 76.1068V44.4968Z" fill="#003049"/>
<path d="M228.47 67.8069C228.033 69.4711 227.359 71.0639 226.47 72.5369C225.725 73.9511 224.705 75.2023 223.47 76.2169C218.563 76.0769 214.78 74.2203 212.12 70.6469C207.56 74.8469 202.617 76.9469 197.29 76.9469C194.845 77.0042 192.415 76.5583 190.15 75.6369C188.21 74.8237 186.455 73.6263 184.99 72.1169C183.595 70.6556 182.522 68.9183 181.84 67.0169C181.16 65.0903 180.822 63.0599 180.84 61.0169C180.779 58.2814 181.336 55.5673 182.47 53.0769C183.503 50.8648 185.033 48.921 186.94 47.3969C188.912 45.8535 191.158 44.6965 193.56 43.9869C196.184 43.2003 198.911 42.8094 201.65 42.8269C203.27 42.8269 204.65 42.8269 205.91 42.8769C207.17 42.9269 208.21 42.9669 209.12 43.0369V41.0369C209.12 36.5636 206.843 34.3303 202.29 34.3369C199.343 34.3369 194.19 35.4936 186.83 37.8069C184.73 35.3469 183.397 31.5269 182.83 26.3469C184.51 25.7203 186.383 25.1236 188.45 24.5569C190.517 23.9903 192.637 23.5003 194.81 23.0869C196.983 22.6669 199.12 22.3336 201.22 22.0869C203.104 21.8528 205.001 21.7293 206.9 21.7169C209.303 21.6939 211.697 22.031 214 22.7169C216.196 23.3716 218.237 24.4635 220 25.9269C221.773 27.4468 223.176 29.352 224.1 31.4969C225.17 34.0776 225.688 36.8539 225.62 39.6469V60.9869C225.553 64.2002 226.503 66.4736 228.47 67.8069ZM196.72 59.9169C196.72 63.2502 198.613 64.9169 202.4 64.9169C204.4 64.9169 206.56 63.9169 209.02 61.9169V53.5069L205.5 53.3469C204.5 53.3469 203.83 53.3469 203.34 53.3469C198.927 53.2469 196.72 55.4369 196.72 59.9169Z" fill="#003049"/>
<path d="M251.29 1.90687C252.258 4.56769 252.719 7.38626 252.65 10.2169C252.712 15.2126 251.084 20.0827 248.03 24.0369C244.943 28.0369 240.457 30.8569 234.57 32.4969C233.365 31.9215 232.387 30.9608 231.79 29.7669C231.126 28.5427 230.817 27.1571 230.9 25.7669V24.9269C233.119 24.3032 235.169 23.1891 236.9 21.6669C237.748 20.9289 238.473 20.0615 239.05 19.0969C239.61 18.1601 239.904 17.0883 239.9 15.9969C238.226 15.905 236.601 15.4 235.17 14.5269C234.643 13.4617 234.269 12.327 234.06 11.1569C233.949 10.1809 233.896 9.19916 233.9 8.21687C233.771 6.03912 234.208 3.86508 235.17 1.90687C236.442 1.16866 237.822 0.635441 239.26 0.326855C240.582 0.108262 241.92 0.00454385 243.26 0.0168577C246.061 -0.116022 248.843 0.538756 251.29 1.90687Z" fill="#003049"/>
<path d="M246.42 71.7967C246.543 69.7296 247.024 67.6996 247.84 65.7967C248.548 63.904 249.599 62.1581 250.94 60.6467C256.553 63.5867 261.423 65.06 265.55 65.0667C267.12 65.1564 268.684 64.8103 270.07 64.0667C270.549 63.802 270.948 63.4138 271.226 62.9425C271.504 62.4711 271.65 61.9339 271.65 61.3867C271.65 59.2767 270.04 57.7066 266.82 56.6566L261.03 54.4967C252.27 51.2767 247.89 46.02 247.89 38.7267C247.89 33.3933 249.73 29.17 253.41 26.0567C257.09 22.9433 262.05 21.3733 268.29 21.3467C271.726 21.3877 275.145 21.8274 278.48 22.6567C281.637 23.343 284.706 24.3829 287.63 25.7567C287.726 27.9726 287.33 30.1823 286.47 32.2267C285.837 34.1735 284.673 35.9051 283.11 37.2267C277.217 34.56 272.31 33.2267 268.39 33.2267C267.244 33.1485 266.108 33.4857 265.19 34.1767C264.831 34.4674 264.544 34.8371 264.352 35.2568C264.159 35.6766 264.066 36.1351 264.08 36.5966C264.08 38.2766 265.413 39.61 268.08 40.5966L274.59 42.9167C283.923 46.21 288.59 51.85 288.59 59.8367C288.682 62.2311 288.206 64.6132 287.199 66.7878C286.193 68.9624 284.685 70.8674 282.8 72.3466C278.947 75.4266 273.447 76.9666 266.3 76.9666C259.335 77.0144 252.479 75.2316 246.42 71.7967Z" fill="#003049"/>
<path d="M131.63 115.317L125.93 86.0769C127.15 85.5247 128.471 85.2318 129.81 85.2168C130.82 85.1299 131.823 85.4382 132.61 86.0769C133.338 86.9801 133.765 88.0887 133.83 89.2469L135.99 102.187C136.69 106.247 137.097 108.914 137.21 110.187C137.253 110.857 137.333 111.525 137.45 112.187C137.503 112.267 137.623 112.307 137.81 112.307L141.94 86.3069C143.502 86.0706 145.08 85.9602 146.66 85.9768C148.223 85.9593 149.785 86.0696 151.33 86.3069L155.12 111.667C155.12 111.987 155.2 112.177 155.28 112.237C155.384 112.313 155.512 112.348 155.64 112.337C155.96 109.397 156.44 105.994 157.08 102.127L159.96 85.6869C161.017 85.4794 162.093 85.3822 163.17 85.3969C164.37 85.391 165.565 85.5525 166.72 85.8769L167.05 86.3568L160.63 118.357C158.785 118.574 156.928 118.688 155.07 118.697C153.786 118.793 152.498 118.559 151.33 118.017C150.909 117.702 150.562 117.299 150.313 116.836C150.064 116.373 149.92 115.862 149.89 115.337L148.17 104.647C147.43 99.4802 146.95 95.7435 146.73 93.4369H146.34C145.927 96.9435 145.383 100.68 144.71 104.647L142.46 118.357C140.584 118.568 138.698 118.682 136.81 118.697C135.552 118.782 134.292 118.559 133.14 118.047C132.704 117.73 132.343 117.321 132.082 116.849C131.821 116.378 131.667 115.855 131.63 115.317Z" fill="#FC951F"/>
<path d="M168.78 97.8267C168.941 97.0909 169.232 96.3898 169.64 95.7567C169.989 95.1428 170.442 94.5945 170.98 94.1367C172.271 94.2001 173.515 94.6427 174.555 95.4094C175.596 96.176 176.387 97.2325 176.83 98.4467C178.04 95.5967 180.06 94.1767 182.83 94.1767C183.879 94.1763 184.924 94.3074 185.94 94.5667C185.911 95.691 185.753 96.8082 185.47 97.8967C185.196 99.0624 184.758 100.183 184.17 101.227C183.391 100.983 182.585 100.839 181.77 100.797C180.913 100.812 180.076 101.062 179.35 101.518C178.624 101.975 178.036 102.621 177.65 103.387V118.387C176.495 118.596 175.323 118.693 174.15 118.677C172.93 118.687 171.712 118.59 170.51 118.387V102.757C170.55 100.367 169.96 98.7167 168.78 97.8267Z" fill="#FC951F"/>
<path d="M198.11 99.8369V118.387C196.955 118.595 195.783 118.692 194.61 118.677C193.39 118.688 192.172 118.591 190.97 118.387V102.277C190.97 100.457 190.22 99.5469 188.72 99.5469H188.04C187.664 97.9015 187.664 96.1923 188.04 94.5469C189.64 94.3869 191 94.3069 192.12 94.3069H193.12C193.806 94.271 194.491 94.3848 195.128 94.6404C195.765 94.896 196.339 95.2872 196.81 95.7869C197.741 96.9235 198.205 98.371 198.11 99.8369ZM189.53 87.6569C189.531 86.7376 189.711 85.8273 190.06 84.9769C191.157 84.4525 192.365 84.2053 193.58 84.2569C194.751 84.1929 195.917 84.4414 196.96 84.9769C197.666 86.6972 197.666 88.6266 196.96 90.3469C195.877 90.8914 194.67 91.1398 193.46 91.0669C192.282 91.1494 191.104 90.8999 190.06 90.3469C189.71 89.4932 189.53 88.5795 189.53 87.6569Z" fill="#FC951F"/>
<path d="M217.47 94.4969C217.857 96.1682 217.857 97.9056 217.47 99.5769L211.72 99.4869V110.937C211.72 112.437 212.43 113.187 213.83 113.187H216.61C216.968 114.172 217.163 115.209 217.19 116.257C217.216 116.903 217.152 117.549 217 118.177C214.903 118.481 212.788 118.642 210.67 118.657C206.743 118.657 204.777 116.514 204.77 112.227V99.4969H201.03C200.657 97.8241 200.657 96.0896 201.03 94.4169H204.77V91.4869C204.652 90.3023 204.96 89.1144 205.64 88.1369C206.04 87.7668 206.515 87.4862 207.032 87.3137C207.55 87.1413 208.098 87.081 208.64 87.1369H211.42L211.75 87.4769V94.4769L217.47 94.4969Z" fill="#FC951F"/>
<path d="M230.66 99.8369V118.387C229.505 118.595 228.333 118.692 227.16 118.677C225.937 118.688 224.716 118.591 223.51 118.387V102.277C223.51 100.457 222.76 99.5469 221.26 99.5469H220.59C220.2 97.903 220.2 96.1907 220.59 94.5469C222.19 94.3869 223.59 94.3069 224.66 94.3069H225.66C226.346 94.2696 227.031 94.3828 227.669 94.6385C228.306 94.8941 228.88 95.286 229.35 95.7868C230.288 96.9201 230.756 98.3692 230.66 99.8369ZM222.08 87.6568C222.077 86.7382 222.254 85.8278 222.6 84.9769C223.7 84.4528 224.912 84.2057 226.13 84.2569C227.298 84.1913 228.461 84.4399 229.5 84.9769C230.122 85.5215 230.537 86.2646 230.673 87.0801C230.809 87.8956 230.659 88.7332 230.248 89.4505C229.837 90.1679 229.19 90.7209 228.418 91.0155C227.645 91.3101 226.794 91.3283 226.01 91.0669C224.828 91.1491 223.647 90.8997 222.6 90.3468C222.253 89.4926 222.077 88.5788 222.08 87.6568Z" fill="#FC951F"/>
<path d="M256.92 102.497V112.497C256.819 114.16 257.22 115.814 258.07 117.247C256.901 118.24 255.415 118.783 253.88 118.777C253.297 118.844 252.706 118.78 252.151 118.59C251.595 118.4 251.089 118.088 250.67 117.677C250 116.69 249.687 115.505 249.78 114.317V103.857C249.841 102.97 249.675 102.082 249.3 101.277C249.124 100.998 248.873 100.773 248.576 100.628C248.28 100.484 247.949 100.424 247.62 100.457C246.873 100.487 246.139 100.668 245.464 100.99C244.788 101.311 244.185 101.766 243.69 102.327V118.387C242.528 118.593 241.35 118.69 240.17 118.677C238.957 118.687 237.746 118.59 236.55 118.387V94.4968L236.89 94.1567H239.57C240.444 94.0932 241.311 94.3508 242.009 94.881C242.707 95.4112 243.187 96.1776 243.36 97.0367C245.687 95.0367 247.953 94.0367 250.16 94.0367C251.118 93.984 252.074 94.166 252.945 94.5668C253.817 94.9677 254.577 95.5753 255.16 96.3368C256.406 98.1415 257.025 100.306 256.92 102.497Z" fill="#FC951F"/>
<path d="M263.56 115.497C262.11 113.267 261.38 110.207 261.38 106.347C261.38 102.487 262.3 99.4168 264.13 97.1668C264.903 96.1238 265.908 95.2752 267.066 94.6885C268.223 94.1018 269.502 93.793 270.8 93.7868C273.168 93.704 275.482 94.5062 277.29 96.0368C277.851 95.4416 278.526 94.9656 279.275 94.6374C280.024 94.3092 280.832 94.1356 281.65 94.1269C282.215 94.5703 282.688 95.1208 283.04 95.7469C283.437 96.3558 283.715 97.0344 283.86 97.7469C282.96 98.4169 282.52 99.6169 282.52 101.337V114.237C282.52 119.67 281.72 123.424 280.12 125.497C278.3 127.797 275.343 128.947 271.25 128.947C268.21 128.956 265.192 128.421 262.34 127.367C262.352 126.412 262.521 125.467 262.84 124.567C263.103 123.698 263.534 122.889 264.11 122.187C266.138 123.128 268.345 123.619 270.58 123.627C273.9 123.627 275.58 121.917 275.58 118.497V116.897C274.005 118.17 272.046 118.875 270.02 118.897C268.738 118.958 267.462 118.676 266.326 118.078C265.19 117.48 264.235 116.589 263.56 115.497ZM275.56 111.327V100.847C274.695 99.8789 273.493 99.2779 272.2 99.1668C269.873 99.1668 268.707 101.627 268.7 106.547C268.604 108.236 268.892 109.924 269.54 111.487C269.713 111.946 270.016 112.345 270.412 112.635C270.808 112.924 271.28 113.092 271.77 113.117C272.492 113.098 273.202 112.93 273.856 112.624C274.51 112.318 275.093 111.879 275.57 111.337L275.56 111.327Z" fill="#FC951F"/>
<path d="M324.82 11.7467H299.82C298.939 11.7395 298.084 12.0435 297.405 12.6052C296.726 13.1668 296.268 13.95 296.11 14.8167C296.098 14.8715 296.082 14.9251 296.06 14.9767V38.3167C296.167 38.7645 296.328 39.1977 296.54 39.6067C296.864 40.2132 297.351 40.7167 297.947 41.0597C298.543 41.4027 299.223 41.5714 299.91 41.5467H324.71C325.215 41.5589 325.717 41.4689 326.185 41.282C326.654 41.0952 327.08 40.8153 327.438 40.4593C327.796 40.1033 328.078 39.6786 328.268 39.2107C328.457 38.7428 328.55 38.2414 328.54 37.7367V15.5567C328.552 15.0607 328.465 14.5672 328.283 14.1055C328.102 13.6437 327.829 13.2229 327.483 12.8679C327.136 12.5129 326.722 12.2308 326.265 12.0382C325.807 11.8457 325.316 11.7466 324.82 11.7467ZM326.55 37.6467C326.572 37.9 326.538 38.1551 326.45 38.3936C326.362 38.6321 326.221 38.8481 326.04 39.0259C325.858 39.2038 325.639 39.3392 325.399 39.4224C325.159 39.5055 324.903 39.5343 324.65 39.5067H300C299.746 39.5321 299.49 39.5005 299.251 39.4142C299.011 39.3279 298.793 39.1891 298.614 39.0079C298.435 38.8268 298.298 38.6078 298.215 38.3671C298.131 38.1264 298.102 37.87 298.13 37.6167V18.4967H326.55V37.6467ZM298.13 16.4967C298.13 16.1167 298.13 15.7567 298.13 15.3667C298.157 14.995 298.309 14.6435 298.562 14.3693C298.814 14.0951 299.152 13.9144 299.52 13.8567C299.69 13.8468 299.86 13.8468 300.03 13.8567H324.65C325.094 13.8087 325.538 13.9369 325.888 14.2138C326.238 14.4907 326.465 14.894 326.52 15.3367C326.545 15.7363 326.545 16.1371 326.52 16.5367L298.13 16.4967Z" fill="#FC951F"/>
<path d="M298.13 18.4968V37.5869C298.102 37.8402 298.131 38.0965 298.215 38.3372C298.298 38.5779 298.435 38.7969 298.614 38.978C298.793 39.1592 299.011 39.298 299.251 39.3843C299.49 39.4706 299.746 39.5022 300 39.4768H324.65C324.903 39.5044 325.159 39.4756 325.399 39.3925C325.639 39.3093 325.858 39.174 326.04 38.9961C326.221 38.8182 326.362 38.6022 326.45 38.3637C326.538 38.1252 326.572 37.8701 326.55 37.6168V18.4968H298.13ZM305.99 35.4068C304.87 35.4068 303.74 35.4068 302.61 35.4068C302.345 35.4068 302.09 35.3015 301.903 35.1139C301.715 34.9264 301.61 34.672 301.61 34.4068C301.61 34.1416 301.715 33.8872 301.903 33.6997C302.09 33.5122 302.345 33.4068 302.61 33.4068C303.16 33.4068 303.73 33.4068 304.28 33.4068H305.94C306.205 33.4068 306.46 33.5122 306.647 33.6997C306.835 33.8872 306.94 34.1416 306.94 34.4068C306.94 34.672 306.835 34.9264 306.647 35.1139C306.46 35.3015 306.205 35.4068 305.94 35.4068H305.99ZM305.94 29.9968H302.69C302.552 30.0079 302.413 29.9902 302.283 29.9449C302.152 29.8997 302.032 29.8278 301.931 29.7338C301.829 29.6398 301.748 29.5258 301.693 29.3989C301.638 29.2721 301.61 29.1352 301.61 28.9968C301.61 28.7316 301.715 28.4773 301.903 28.2897C302.09 28.1022 302.345 27.9968 302.61 27.9968H305.92C306.055 27.99 306.191 28.0109 306.318 28.0581C306.445 28.1053 306.561 28.1779 306.66 28.2714C306.758 28.365 306.836 28.4775 306.889 28.6022C306.943 28.7269 306.97 28.8612 306.97 28.9968C306.974 29.1332 306.95 29.269 306.9 29.3958C306.85 29.5227 306.774 29.6379 306.678 29.7344C306.581 29.8309 306.466 29.9066 306.339 29.9569C306.212 30.0072 306.076 30.031 305.94 30.0268V29.9968ZM305.94 24.5768H302.63C302.365 24.5768 302.11 24.4715 301.923 24.2839C301.735 24.0964 301.63 23.842 301.63 23.5768C301.63 23.3116 301.735 23.0573 301.923 22.8697C302.11 22.6822 302.365 22.5768 302.63 22.5768C303.18 22.5768 303.73 22.5768 304.31 22.5768C304.89 22.5768 305.39 22.5768 305.91 22.5768C306.048 22.5657 306.187 22.5834 306.317 22.6287C306.448 22.674 306.568 22.7459 306.669 22.8399C306.771 22.9339 306.852 23.0479 306.907 23.1747C306.962 23.3016 306.99 23.4385 306.99 23.5768C306.994 23.7123 306.971 23.8473 306.921 23.9734C306.871 24.0996 306.796 24.2144 306.701 24.3107C306.606 24.407 306.492 24.483 306.366 24.5339C306.24 24.5848 306.106 24.6096 305.97 24.6068L305.94 24.5768ZM322.94 35.0768C322.721 35.2715 322.443 35.3877 322.15 35.4068C318.82 35.4068 315.46 35.4068 312.15 35.4068C311.885 35.4068 311.63 35.3015 311.443 35.1139C311.255 34.9264 311.15 34.672 311.15 34.4068C311.15 34.1416 311.255 33.8872 311.443 33.6997C311.63 33.5122 311.885 33.4068 312.15 33.4068H322.21C322.424 33.3934 322.637 33.4494 322.818 33.5664C322.998 33.6835 323.135 33.8554 323.21 34.0568C323.295 34.2323 323.318 34.4312 323.277 34.6216C323.235 34.812 323.13 34.9829 322.98 35.1068L322.94 35.0768ZM322.19 29.9968H312.15C311.981 30.009 311.811 29.978 311.657 29.9067C311.503 29.8353 311.37 29.726 311.27 29.589C311.17 29.452 311.107 29.2918 311.086 29.1235C311.065 28.9552 311.087 28.7842 311.15 28.6268C311.232 28.4293 311.371 28.2604 311.549 28.1413C311.727 28.0221 311.936 27.958 312.15 27.9568H322.15C322.293 27.9351 322.44 27.9448 322.579 27.9852C322.718 28.0256 322.847 28.0958 322.956 28.1909C323.066 28.286 323.153 28.4038 323.212 28.536C323.272 28.6683 323.302 28.8119 323.3 28.9568C323.31 29.1 323.29 29.2438 323.24 29.3783C323.19 29.5129 323.111 29.6351 323.01 29.7366C322.908 29.8381 322.786 29.9166 322.652 29.9666C322.517 30.0167 322.373 30.0373 322.23 30.0268L322.19 29.9968ZM322.19 24.5768H312.12C311.855 24.5768 311.6 24.4715 311.413 24.2839C311.225 24.0964 311.12 23.842 311.12 23.5768C311.12 23.3116 311.225 23.0573 311.413 22.8697C311.6 22.6822 311.855 22.5768 312.12 22.5768C312.74 22.5768 313.34 22.5768 313.94 22.5768H322.18C322.312 22.563 322.446 22.5758 322.573 22.6143C322.7 22.6527 322.819 22.7162 322.921 22.8009C323.023 22.8857 323.108 22.99 323.17 23.1077C323.231 23.2255 323.269 23.3544 323.28 23.4868C323.299 23.6358 323.284 23.787 323.236 23.9294C323.188 24.0717 323.109 24.2015 323.004 24.3091C322.9 24.4166 322.772 24.4993 322.631 24.5508C322.49 24.6024 322.339 24.6215 322.19 24.6068V24.5768Z" fill="#FC951F"/>
</svg>
